<svg width="161" height="32" viewBox="0 0 161 32" fill="none" xmlns="http://www.w3.org/2000/svg">
<path d="M36.0001 30.2668H35.4287V26.1054H32.7713V30.2668H32.2V25.6269H36.0001V30.2668Z" fill="#282626"/>
<path d="M37.6246 25.6269V26.5206C37.9632 25.8345 38.5194 25.4915 39.2934 25.4915C39.9283 25.4915 40.4362 25.7172 40.8171 26.1685C41.2041 26.6199 41.3975 27.2187 41.3975 27.9649C41.3975 28.6991 41.2071 29.2919 40.8262 29.7432C40.4452 30.1886 39.9404 30.4112 39.3115 30.4112C38.5255 30.4112 37.9753 30.0772 37.6609 29.4092V32H37.1076V25.6269H37.6246ZM40.3817 26.5116C40.0976 26.1445 39.7106 25.9609 39.2208 25.9609C38.7311 25.9609 38.3441 26.1385 38.0599 26.4935C37.7818 26.8486 37.6427 27.336 37.6427 27.9559C37.6427 28.5637 37.7848 29.0451 38.069 29.4002C38.3592 29.7553 38.7492 29.9328 39.239 29.9328C39.7166 29.9328 40.0976 29.7553 40.3817 29.4002C40.672 29.0391 40.8171 28.5607 40.8171 27.9649C40.8171 27.3571 40.672 26.8726 40.3817 26.5116Z" fill="#282626"/>
<path d="M46.0795 30.2668H45.5081V26.2949L42.9867 30.2668H42.2793V25.6269H42.8507V29.5988L45.372 25.6269H46.0795V30.2668Z" fill="#282626"/>
<path d="M50.9962 25.4915C51.6673 25.4915 52.1994 25.7142 52.5924 26.1595C52.9915 26.6048 53.191 27.2066 53.191 27.9649C53.191 28.7172 52.9945 29.3129 52.6015 29.7523C52.2085 30.1856 51.6734 30.4022 50.9962 30.4022C50.3371 30.4022 49.8081 30.1946 49.409 29.7793C49.016 29.3581 48.8044 28.7924 48.7741 28.0823H47.722V30.2668H47.1507V25.6269H47.722V27.6038H48.7923C48.8588 26.9539 49.0885 26.4394 49.4816 26.0602C49.8746 25.6811 50.3794 25.4915 50.9962 25.4915ZM52.1752 26.5116C51.879 26.1505 51.4829 25.9699 50.9871 25.9699C50.4913 25.9699 50.0953 26.1505 49.799 26.5116C49.5027 26.8666 49.3546 27.3451 49.3546 27.9469C49.3546 28.5607 49.4997 29.0451 49.7899 29.4002C50.0862 29.7553 50.4913 29.9328 51.0052 29.9328C51.5011 29.9328 51.8941 29.7553 52.1843 29.4002C52.4745 29.0451 52.6196 28.5637 52.6196 27.9559C52.6196 27.3481 52.4715 26.8666 52.1752 26.5116Z" fill="#282626"/>
<path d="M57.3829 26.1054H55.6506V30.2668H55.0792V26.1054H53.3469V25.6269H57.3829V26.1054Z" fill="#282626"/>
<path d="M64.8531 31.7472H64.2818V30.2668H60.5269V31.7472H59.9556V29.7884H60.5088C60.9381 29 61.1527 27.8115 61.1527 26.2227V25.6269H64.2001V29.7884H64.8531V31.7472ZM63.6287 29.7884V26.1054H61.706V26.4123C61.706 27.8686 61.5034 28.994 61.0983 29.7884H63.6287Z" fill="#282626"/>
<path d="M69.2942 30.2668H68.7228V26.1054H66.8182L66.7366 28.4343C66.7124 29.1083 66.6005 29.5988 66.401 29.9057C66.2015 30.2126 65.9082 30.3661 65.5213 30.3661C65.352 30.3661 65.1857 30.333 65.0224 30.2668V29.8064C65.1313 29.8606 65.3006 29.8877 65.5303 29.8877C65.9233 29.8877 66.138 29.3942 66.1743 28.4072L66.265 25.6269H69.2942V30.2668Z" fill="#282626"/>
<path d="M73.957 30.2668H73.3856V28.317H72.2247L70.5831 30.2668H69.8394L71.5717 28.2989C71.1484 28.2688 70.8098 28.1394 70.5559 27.9108C70.308 27.676 70.184 27.3601 70.184 26.9629C70.184 26.5537 70.311 26.2287 70.565 25.988C70.825 25.7473 71.1696 25.6269 71.5989 25.6269H73.957V30.2668ZM73.3856 26.1054H71.7349C71.4266 26.1054 71.1847 26.1836 71.0094 26.3401C70.8401 26.4905 70.7554 26.7011 70.7554 26.9719C70.7554 27.2428 70.8401 27.4564 71.0094 27.6129C71.1847 27.7633 71.4266 27.8385 71.7349 27.8385H73.3856V26.1054Z" fill="#282626"/>
<path d="M79.4158 27.9378L77.6925 30.2668H76.9942L79.0167 27.5587L77.1937 25.6269H77.9646L80.1141 27.992V25.6269H80.6855V27.983L82.835 25.6269H83.6059L81.7829 27.5587L83.8055 30.2668H83.1071L81.3839 27.9378L80.6855 28.66V30.2668H80.1141V28.66L79.4158 27.9378Z" fill="#282626"/>
<path d="M88.0973 30.2668H87.5259V26.2949L85.0046 30.2668H84.2971V25.6269H84.8685V29.5988L87.3899 25.6269H88.0973V30.2668Z" fill="#282626"/>
<path d="M93.0322 28.9669C93.0322 29.3882 92.8871 29.7101 92.5969 29.9328C92.3066 30.1555 91.8924 30.2668 91.3543 30.2668H89.1685V25.6269H91.3543C91.832 25.6269 92.2008 25.7232 92.4608 25.9158C92.7208 26.1023 92.8508 26.3732 92.8508 26.7282C92.8508 27.2879 92.5817 27.643 92.0436 27.7934V27.8115C92.7027 27.9258 93.0322 28.3109 93.0322 28.9669ZM92.2794 26.8726C92.2794 26.3611 91.9499 26.1054 91.2908 26.1054H89.7399V27.6219H91.2908C91.6113 27.6219 91.8562 27.5557 92.0255 27.4233C92.1948 27.2909 92.2794 27.1073 92.2794 26.8726ZM92.4608 28.9037C92.4608 28.344 92.0708 28.0642 91.2908 28.0642H89.7399V29.7884H91.2908C92.0708 29.7884 92.4608 29.4935 92.4608 28.9037Z" fill="#282626"/>
<path d="M95.8669 25.4915C96.5381 25.4915 97.0702 25.7142 97.4632 26.1595C97.8623 26.6048 98.0618 27.2066 98.0618 27.9649C98.0618 28.7172 97.8653 29.3129 97.4723 29.7523C97.0792 30.1856 96.5441 30.4022 95.8669 30.4022C95.1897 30.4022 94.6486 30.1825 94.2435 29.7432C93.8444 29.2979 93.6449 28.6991 93.6449 27.9469C93.6449 27.2006 93.8444 26.6048 94.2435 26.1595C94.6486 25.7142 95.1897 25.4915 95.8669 25.4915ZM97.046 26.5116C96.7497 26.1505 96.3537 25.9699 95.8579 25.9699C95.3621 25.9699 94.966 26.1505 94.6698 26.5116C94.3735 26.8666 94.2253 27.3451 94.2253 27.9469C94.2253 28.5607 94.3705 29.0451 94.6607 29.4002C94.957 29.7553 95.3621 29.9328 95.876 29.9328C96.3718 29.9328 96.7648 29.7553 97.0551 29.4002C97.3453 29.0451 97.4904 28.5637 97.4904 27.9559C97.4904 27.3481 97.3423 26.8666 97.046 26.5116Z" fill="#282626"/>
<path d="M102.253 26.1054H100.52V30.2668H99.9491V26.1054H98.2168V25.6269H102.253V26.1054Z" fill="#282626"/>
<path d="M106.582 30.2668H106.011V28.0823H103.353V30.2668H102.782V25.6269H103.353V27.6038H106.011V25.6269H106.582V30.2668Z" fill="#282626"/>
<path d="M107.635 25.6269H108.206V27.4504H109.721C110.175 27.4504 110.534 27.5768 110.8 27.8295C111.066 28.0823 111.199 28.4253 111.199 28.8586C111.199 29.2979 111.066 29.6439 110.8 29.8967C110.534 30.1434 110.175 30.2668 109.721 30.2668H107.635V25.6269ZM110.628 28.8586C110.628 28.5637 110.534 28.335 110.347 28.1725C110.165 28.01 109.912 27.9288 109.585 27.9288H108.206V29.7884H109.585C109.918 29.7884 110.175 29.7101 110.356 29.5537C110.537 29.3912 110.628 29.1595 110.628 28.8586ZM112.079 25.6269H112.651V30.2668H112.079V25.6269Z" fill="#282626"/>
<path d="M117.339 25.6269L115.689 27.7934L117.53 30.2668H116.804L115.562 28.5697C115.544 28.5457 115.52 28.5156 115.489 28.4795C115.465 28.4373 115.438 28.3952 115.408 28.3531C115.383 28.3109 115.356 28.2658 115.326 28.2177C115.26 28.326 115.181 28.4403 115.09 28.5607L113.857 30.2668H113.177L114.981 27.8295L113.313 25.6269H114.038L115.045 26.981C115.081 27.0231 115.13 27.0953 115.19 27.1976C115.257 27.2939 115.305 27.3661 115.335 27.4143C115.51 27.1615 115.61 27.0171 115.634 26.981L116.668 25.6269H117.339Z" fill="#282626"/>
<path d="M0.941944 15.7483C0.676268 15.7483 0.452858 15.6583 0.271715 15.4783C0.0905715 15.2983 0 15.0763 0 14.8124V2.62773C0 2.35176 0.0905715 2.12978 0.271715 1.9618C0.452858 1.78182 0.676268 1.69183 0.941944 1.69183H9.12961C9.40737 1.69183 9.63078 1.77582 9.79984 1.94381C9.96891 2.09979 10.0534 2.30976 10.0534 2.57373C10.0534 2.82571 9.96891 3.02969 9.79984 3.18567C9.63078 3.34165 9.40737 3.41964 9.12961 3.41964H1.88389V7.79316H7.0827C7.36045 7.79316 7.58386 7.87715 7.75293 8.04513C7.92199 8.20111 8.00653 8.40509 8.00653 8.65706C8.00653 8.90903 7.92199 9.11901 7.75293 9.28699C7.58386 9.44297 7.36045 9.52097 7.0827 9.52097H1.88389V14.8124C1.88389 15.0763 1.79332 15.2983 1.61217 15.4783C1.43103 15.6583 1.20762 15.7483 0.941944 15.7483Z" fill="#282626"/>
<path d="M13.1691 9.59296C13.1691 8.87304 13.3442 8.23111 13.6944 7.66717C14.0567 7.09123 14.5398 6.63528 15.1436 6.29932C15.7474 5.96336 16.4116 5.79538 17.1361 5.79538C17.8607 5.79538 18.3981 5.91536 18.7483 6.15534C19.1106 6.38331 19.2495 6.65928 19.1649 6.98325C19.1287 7.15123 19.0563 7.28321 18.9476 7.3792C18.851 7.46319 18.7362 7.51719 18.6034 7.54118C18.4706 7.56518 18.3256 7.55918 18.1687 7.52319C17.3958 7.3672 16.7014 7.35521 16.0855 7.48719C15.4696 7.61918 14.9805 7.86515 14.6183 8.22511C14.268 8.58507 14.0929 9.04102 14.0929 9.59296H13.1691ZM13.1872 15.7483C12.8974 15.7483 12.674 15.6763 12.517 15.5323C12.36 15.3763 12.2815 15.1483 12.2815 14.8484V6.80327C12.2815 6.5153 12.36 6.29332 12.517 6.13734C12.674 5.98136 12.8974 5.90337 13.1872 5.90337C13.4891 5.90337 13.7125 5.98136 13.8575 6.13734C14.0144 6.28132 14.0929 6.5033 14.0929 6.80327V14.8484C14.0929 15.1363 14.0144 15.3583 13.8575 15.5143C13.7125 15.6703 13.4891 15.7483 13.1872 15.7483Z" fill="#282626"/>
<path d="M22.196 15.7483C21.9303 15.7483 21.7069 15.6643 21.5257 15.4963C21.3567 15.3163 21.2721 15.0943 21.2721 14.8304V6.82126C21.2721 6.54529 21.3567 6.32332 21.5257 6.15534C21.7069 5.98736 21.9303 5.90337 22.196 5.90337C22.4737 5.90337 22.6971 5.98736 22.8662 6.15534C23.0353 6.32332 23.1198 6.54529 23.1198 6.82126V14.8304C23.1198 15.0943 23.0353 15.3163 22.8662 15.4963C22.6971 15.6643 22.4737 15.7483 22.196 15.7483ZM22.196 4.30154C21.8699 4.30154 21.5861 4.18756 21.3446 3.95958C21.1152 3.71961 21.0004 3.43764 21.0004 3.11368C21.0004 2.78971 21.1152 2.51374 21.3446 2.28577C21.5861 2.04579 21.8699 1.92581 22.196 1.92581C22.522 1.92581 22.7998 2.04579 23.0292 2.28577C23.2708 2.51374 23.3915 2.78971 23.3915 3.11368C23.3915 3.43764 23.2708 3.71961 23.0292 3.95958C22.7998 4.18756 22.522 4.30154 22.196 4.30154Z" fill="#282626"/>
<path d="M31.2125 15.8203C30.2102 15.8203 29.3166 15.6103 28.5316 15.1903C27.7587 14.7584 27.1489 14.1704 26.7021 13.4265C26.2673 12.6706 26.0499 11.8067 26.0499 10.8348C26.0499 9.85093 26.2552 8.98702 26.6658 8.24311C27.0885 7.48719 27.6682 6.89926 28.4048 6.4793C29.1415 6.04735 29.9868 5.83137 30.9408 5.83137C31.8827 5.83137 32.6919 6.04135 33.3681 6.4613C34.0444 6.86926 34.5576 7.4392 34.9078 8.17111C35.2701 8.89103 35.4513 9.72494 35.4513 10.6728C35.4513 10.9008 35.3728 11.0928 35.2158 11.2488C35.0588 11.3928 34.8595 11.4647 34.618 11.4647H27.3179V10.0249H34.5637L33.821 10.5289C33.8089 9.92892 33.6881 9.39498 33.4587 8.92703C33.2292 8.44708 32.9032 8.06913 32.4805 7.79316C32.0579 7.51719 31.5446 7.3792 30.9408 7.3792C30.2525 7.3792 29.6607 7.52919 29.1656 7.82915C28.6826 8.12912 28.3142 8.54307 28.0606 9.07102C27.807 9.58696 27.6802 10.1749 27.6802 10.8348C27.6802 11.4947 27.8312 12.0827 28.1331 12.5986C28.435 13.1146 28.8516 13.5225 29.383 13.8225C29.9143 14.1225 30.5242 14.2724 31.2125 14.2724C31.5869 14.2724 31.9673 14.2064 32.3537 14.0745C32.7522 13.9305 33.0723 13.7685 33.3138 13.5885C33.4949 13.4565 33.6881 13.3905 33.8934 13.3905C34.1108 13.3785 34.298 13.4385 34.455 13.5705C34.6603 13.7505 34.769 13.9485 34.781 14.1644C34.7931 14.3804 34.6965 14.5664 34.4912 14.7224C34.0806 15.0464 33.5674 15.3103 32.9515 15.5143C32.3477 15.7183 31.768 15.8203 31.2125 15.8203Z" fill="#282626"/>
<path d="M46.1766 15.7663C45.911 15.7663 45.6876 15.6823 45.5064 15.5143C45.3373 15.3343 45.2528 15.1123 45.2528 14.8484V10.4209C45.2528 9.73694 45.126 9.179 44.8724 8.74705C44.6188 8.3151 44.2746 7.99713 43.8399 7.79316C43.4172 7.57718 42.9281 7.46919 42.3726 7.46919C41.8654 7.46919 41.4065 7.57118 40.9959 7.77516C40.5854 7.97914 40.2593 8.25511 40.0178 8.60307C39.7762 8.93903 39.6555 9.32899 39.6555 9.77294H38.5143C38.5143 9.01702 38.6954 8.3451 39.0577 7.75716C39.4321 7.15723 39.9393 6.68328 40.5793 6.33532C41.2194 5.98736 41.9379 5.81338 42.7349 5.81338C43.5682 5.81338 44.3109 5.99336 44.963 6.35332C45.6272 6.70128 46.1465 7.21722 46.5208 7.90114C46.9073 8.58507 47.1005 9.42498 47.1005 10.4209V14.8484C47.1005 15.1123 47.0099 15.3343 46.8288 15.5143C46.6597 15.6823 46.4423 15.7663 46.1766 15.7663ZM38.7317 15.7663C38.466 15.7663 38.2426 15.6823 38.0614 15.5143C37.8924 15.3343 37.8078 15.1123 37.8078 14.8484V6.82126C37.8078 6.54529 37.8924 6.32332 38.0614 6.15534C38.2426 5.98736 38.466 5.90337 38.7317 5.90337C39.0094 5.90337 39.2328 5.98736 39.4019 6.15534C39.571 6.32332 39.6555 6.54529 39.6555 6.82126V14.8484C39.6555 15.1123 39.571 15.3343 39.4019 15.5143C39.2328 15.6823 39.0094 15.7663 38.7317 15.7663Z" fill="#282626"/>
<path d="M54.6476 15.8203C53.7057 15.8203 52.8543 15.6043 52.0935 15.1723C51.3448 14.7284 50.747 14.1285 50.3002 13.3725C49.8654 12.6166 49.6481 11.7647 49.6481 10.8168C49.6481 9.86893 49.8473 9.02302 50.2459 8.2791C50.6564 7.52319 51.2119 6.92925 51.9124 6.4973C52.6128 6.05335 53.4038 5.83137 54.2853 5.83137C54.9978 5.83137 55.656 5.98136 56.2598 6.28132C56.8636 6.56929 57.3708 6.96525 57.7814 7.46919V2.60973C57.7814 2.33376 57.8659 2.11179 58.035 1.94381C58.2162 1.77582 58.4396 1.69183 58.7052 1.69183C58.983 1.69183 59.2064 1.77582 59.3755 1.94381C59.5445 2.11179 59.6291 2.33376 59.6291 2.60973V10.8168C59.6291 11.7647 59.4057 12.6166 58.9588 13.3725C58.5241 14.1285 57.9324 14.7284 57.1836 15.1723C56.4349 15.6043 55.5896 15.8203 54.6476 15.8203ZM54.6476 14.2004C55.2635 14.2004 55.813 14.0565 56.296 13.7685C56.7791 13.4685 57.1595 13.0606 57.4372 12.5446C57.715 12.0287 57.8539 11.4528 57.8539 10.8168C57.8539 10.1689 57.715 9.59296 57.4372 9.08901C57.1595 8.58507 56.7791 8.18911 56.296 7.90114C55.813 7.60118 55.2635 7.45119 54.6476 7.45119C54.0438 7.45119 53.4944 7.60118 52.9992 7.90114C52.5162 8.18911 52.1297 8.58507 51.8399 9.08901C51.5622 9.59296 51.4233 10.1689 51.4233 10.8168C51.4233 11.4528 51.5622 12.0287 51.8399 12.5446C52.1297 13.0606 52.5162 13.4685 52.9992 13.7685C53.4944 14.0565 54.0438 14.2004 54.6476 14.2004Z" fill="#282626"/>
<path d="M65.2468 15.7483C64.7154 15.7483 64.2444 15.6043 63.8339 15.3163C63.4233 15.0284 63.1032 14.6384 62.8738 14.1465C62.6443 13.6425 62.5296 13.0666 62.5296 12.4186V2.59173C62.5296 2.32776 62.6142 2.11179 62.7832 1.94381C62.9523 1.77582 63.1697 1.69183 63.4353 1.69183C63.701 1.69183 63.9184 1.77582 64.0875 1.94381C64.2565 2.11179 64.3411 2.32776 64.3411 2.59173V12.4186C64.3411 12.8626 64.4256 13.2286 64.5947 13.5165C64.7637 13.8045 64.9811 13.9485 65.2468 13.9485H65.6996C65.9412 13.9485 66.1344 14.0325 66.2793 14.2004C66.4363 14.3684 66.5148 14.5844 66.5148 14.8484C66.5148 15.1123 66.4 15.3283 66.1706 15.4963C65.9412 15.6643 65.6453 15.7483 65.283 15.7483H65.2468Z" fill="#282626"/>
<path d="M70.0979 20.0678C69.9771 20.0678 69.8322 20.0318 69.6631 19.9598C69.1318 19.7198 68.9869 19.3419 69.2284 18.8259L74.7533 6.42531C74.9948 5.92136 75.3752 5.77738 75.8945 5.99336C76.4379 6.22133 76.5888 6.59929 76.3473 7.12723L70.8043 19.5099C70.6594 19.8818 70.4239 20.0678 70.0979 20.0678ZM72.2354 15.3523C72.0059 15.4483 71.7885 15.4603 71.5832 15.3883C71.39 15.3043 71.233 15.1483 71.1123 14.9204L66.9641 7.09123C66.8433 6.86326 66.8252 6.64728 66.9097 6.44331C67.0064 6.22733 67.1694 6.07135 67.3988 5.97536C67.6283 5.87937 67.8457 5.87337 68.0509 5.95736C68.2562 6.02935 68.4132 6.17934 68.5219 6.40731L72.489 14.2364C72.6097 14.4644 72.652 14.6864 72.6158 14.9024C72.5916 15.1063 72.4648 15.2563 72.2354 15.3523Z" fill="#282626"/>
<path d="M84.5174 15.7483C84.2518 15.7483 84.0283 15.6583 83.8472 15.4783C83.6661 15.2983 83.5755 15.0763 83.5755 14.8124V2.62773C83.5755 2.35176 83.6661 2.12978 83.8472 1.9618C84.0283 1.78182 84.2518 1.69183 84.5174 1.69183C84.7952 1.69183 85.0186 1.78182 85.1877 1.9618C85.3688 2.12978 85.4594 2.35176 85.4594 2.62773V7.79316H93.8644V2.62773C93.8644 2.35176 93.955 2.12978 94.1361 1.9618C94.3173 1.78182 94.5407 1.69183 94.8064 1.69183C95.0841 1.69183 95.3075 1.78182 95.4766 1.9618C95.6457 2.12978 95.7302 2.35176 95.7302 2.62773V14.8124C95.7302 15.0763 95.6457 15.2983 95.4766 15.4783C95.3075 15.6583 95.0841 15.7483 94.8064 15.7483C94.5407 15.7483 94.3173 15.6583 94.1361 15.4783C93.955 15.2983 93.8644 15.0763 93.8644 14.8124V9.44897H85.4594V14.8124C85.4594 15.0763 85.3688 15.2983 85.1877 15.4783C85.0186 15.6583 84.7952 15.7483 84.5174 15.7483Z" fill="#282626"/>
<path d="M103.666 15.8203C102.688 15.8203 101.824 15.6103 101.076 15.1903C100.327 14.7584 99.7352 14.1704 99.3004 13.4265C98.8777 12.6706 98.6664 11.8067 98.6664 10.8348C98.6664 9.85093 98.8777 8.98702 99.3004 8.24311C99.7352 7.48719 100.327 6.89926 101.076 6.4793C101.824 6.04735 102.688 5.83137 103.666 5.83137C104.632 5.83137 105.489 6.04735 106.238 6.4793C106.987 6.89926 107.573 7.48719 107.995 8.24311C108.43 8.98702 108.647 9.85093 108.647 10.8348C108.647 11.8067 108.436 12.6706 108.013 13.4265C107.591 14.1704 107.005 14.7584 106.256 15.1903C105.508 15.6103 104.644 15.8203 103.666 15.8203ZM103.666 14.2004C104.294 14.2004 104.849 14.0565 105.332 13.7685C105.816 13.4805 106.19 13.0846 106.456 12.5806C106.733 12.0767 106.872 11.4947 106.872 10.8348C106.872 10.1749 106.733 9.59296 106.456 9.08901C106.19 8.57307 105.816 8.17111 105.332 7.88315C104.849 7.59518 104.294 7.45119 103.666 7.45119C103.038 7.45119 102.482 7.59518 101.999 7.88315C101.516 8.17111 101.136 8.57307 100.858 9.08901C100.58 9.59296 100.442 10.1749 100.442 10.8348C100.442 11.4947 100.58 12.0767 100.858 12.5806C101.136 13.0846 101.516 13.4805 101.999 13.7685C102.482 14.0565 103.038 14.2004 103.666 14.2004Z" fill="#282626"/>
<path d="M115.564 15.8383C114.73 15.8383 113.982 15.6643 113.317 15.3163C112.665 14.9564 112.146 14.4344 111.76 13.7505C111.385 13.0666 111.198 12.2267 111.198 11.2308V6.80327C111.198 6.5393 111.283 6.32332 111.452 6.15534C111.633 5.97536 111.856 5.88537 112.122 5.88537C112.387 5.88537 112.605 5.97536 112.774 6.15534C112.955 6.32332 113.046 6.5393 113.046 6.80327V11.2308C113.046 11.9027 113.172 12.4606 113.426 12.9046C113.68 13.3365 114.024 13.6605 114.459 13.8765C114.893 14.0805 115.382 14.1824 115.926 14.1824C116.445 14.1824 116.904 14.0805 117.302 13.8765C117.713 13.6725 118.039 13.3965 118.281 13.0486C118.522 12.7006 118.643 12.3107 118.643 11.8787H119.784C119.784 12.6226 119.597 13.2945 119.223 13.8945C118.86 14.4944 118.359 14.9684 117.719 15.3163C117.091 15.6643 116.373 15.8383 115.564 15.8383ZM119.567 15.7483C119.301 15.7483 119.078 15.6643 118.897 15.4963C118.727 15.3163 118.643 15.0943 118.643 14.8304V6.80327C118.643 6.5273 118.727 6.30532 118.897 6.13734C119.078 5.96936 119.301 5.88537 119.567 5.88537C119.845 5.88537 120.068 5.96936 120.237 6.13734C120.406 6.30532 120.491 6.5273 120.491 6.80327V14.8304C120.491 15.0943 120.406 15.3163 120.237 15.4963C120.068 15.6643 119.845 15.7483 119.567 15.7483Z" fill="#282626"/>
<path d="M127.349 15.8203C126.504 15.8203 125.719 15.6943 124.995 15.4423C124.282 15.1783 123.727 14.8484 123.328 14.4524C123.147 14.2604 123.068 14.0445 123.093 13.8045C123.129 13.5525 123.25 13.3485 123.455 13.1926C123.696 13.0006 123.932 12.9226 124.161 12.9586C124.403 12.9826 124.608 13.0846 124.777 13.2646C124.982 13.4925 125.309 13.7085 125.755 13.9125C126.214 14.1045 126.721 14.2004 127.277 14.2004C127.977 14.2004 128.509 14.0865 128.871 13.8585C129.245 13.6305 129.439 13.3365 129.451 12.9766C129.463 12.6166 129.288 12.3047 128.925 12.0407C128.575 11.7767 127.929 11.5607 126.987 11.3928C125.767 11.1528 124.88 10.7928 124.324 10.3129C123.781 9.83293 123.509 9.245 123.509 8.54907C123.509 7.93714 123.69 7.4332 124.053 7.03724C124.415 6.62929 124.88 6.32932 125.447 6.13734C126.015 5.93336 126.607 5.83137 127.223 5.83137C128.02 5.83137 128.726 5.95736 129.342 6.20933C129.958 6.4613 130.447 6.80927 130.809 7.25322C130.978 7.44519 131.057 7.64917 131.045 7.86515C131.033 8.06913 130.93 8.24311 130.737 8.38709C130.544 8.51908 130.314 8.56107 130.048 8.51308C129.783 8.46508 129.559 8.35709 129.378 8.18911C129.076 7.90114 128.75 7.70317 128.4 7.59518C128.05 7.48719 127.645 7.4332 127.186 7.4332C126.655 7.4332 126.202 7.52319 125.828 7.70317C125.466 7.88315 125.284 8.14712 125.284 8.49508C125.284 8.71105 125.339 8.90903 125.447 9.08901C125.568 9.257 125.798 9.41298 126.136 9.55696C126.474 9.68895 126.969 9.82093 127.621 9.95292C128.527 10.1329 129.239 10.3609 129.759 10.6368C130.29 10.9128 130.67 11.2368 130.9 11.6087C131.129 11.9687 131.244 12.3886 131.244 12.8686C131.244 13.4205 131.093 13.9185 130.791 14.3624C130.501 14.8064 130.067 15.1603 129.487 15.4243C128.919 15.6883 128.207 15.8203 127.349 15.8203Z" fill="#282626"/>
<path d="M138.236 15.8203C137.233 15.8203 136.34 15.6103 135.555 15.1903C134.782 14.7584 134.172 14.1704 133.725 13.4265C133.29 12.6706 133.073 11.8067 133.073 10.8348C133.073 9.85093 133.278 8.98702 133.689 8.24311C134.112 7.48719 134.691 6.89926 135.428 6.4793C136.164 6.04735 137.01 5.83137 137.964 5.83137C138.906 5.83137 139.715 6.04135 140.391 6.4613C141.067 6.86926 141.581 7.4392 141.931 8.17111C142.293 8.89103 142.474 9.72494 142.474 10.6728C142.474 10.9008 142.396 11.0928 142.239 11.2488C142.082 11.3928 141.883 11.4647 141.641 11.4647H134.341V10.0249H141.587L140.844 10.5289C140.832 9.92892 140.711 9.39498 140.482 8.92703C140.252 8.44708 139.926 8.06913 139.504 7.79316C139.081 7.51719 138.568 7.3792 137.964 7.3792C137.275 7.3792 136.684 7.52919 136.189 7.82915C135.706 8.12912 135.337 8.54307 135.084 9.07102C134.83 9.58696 134.703 10.1749 134.703 10.8348C134.703 11.4947 134.854 12.0827 135.156 12.5986C135.458 13.1146 135.875 13.5225 136.406 13.8225C136.937 14.1225 137.547 14.2724 138.236 14.2724C138.61 14.2724 138.99 14.2064 139.377 14.0745C139.775 13.9305 140.095 13.7685 140.337 13.5885C140.518 13.4565 140.711 13.3905 140.916 13.3905C141.134 13.3785 141.321 13.4385 141.478 13.5705C141.683 13.7505 141.792 13.9485 141.804 14.1644C141.816 14.3804 141.72 14.5664 141.514 14.7224C141.104 15.0464 140.59 15.3103 139.975 15.5143C139.371 15.7183 138.791 15.8203 138.236 15.8203Z" fill="#282626"/>
<g clip-path="url(#clip0_77_92)">
<path d="M153.002 12.0006C152.703 11.786 152.528 11.5686 152.467 11.3356C152.241 10.466 151.51 9.83118 150.689 9.83118C149.869 9.83118 149.11 10.466 148.884 11.336C148.823 11.5681 148.648 11.786 148.349 12.0009C147.985 12.263 147.818 12.6684 147.914 13.0593C148.03 13.5295 148.555 13.9478 149.274 13.9478C149.578 13.9478 149.867 13.8703 150.109 13.724C150.269 13.6262 150.488 13.5743 150.688 13.5743C150.889 13.5743 151.08 13.6258 151.243 13.7235C151.485 13.8707 151.772 13.9485 152.073 13.9485C152.792 13.9485 153.32 13.5324 153.437 13.0594C153.533 12.6684 153.366 12.2626 153.002 12.0006Z" fill="#FF8A00"/>
<path d="M148.606 9.8311C148.606 9.35839 148.23 8.60559 147.784 8.60559C147.338 8.60559 146.961 9.35839 146.961 9.8311C146.961 10.2815 147.33 10.6481 147.784 10.6481C148.237 10.6481 148.606 10.2815 148.606 9.8311Z" fill="#FF8A00"/>
<path d="M153.567 8.60559C153.121 8.60559 152.745 9.35839 152.745 9.8311C152.745 10.2815 153.114 10.6481 153.567 10.6481C154.02 10.6481 154.389 10.2815 154.389 9.8311C154.389 9.35839 154.013 8.60559 153.567 8.60559Z" fill="#FF8A00"/>
<path d="M151.1 8.19709C151.1 8.64755 151.469 9.01416 151.923 9.01416C152.376 9.01416 152.745 8.64755 152.745 8.19709C152.745 7.72438 152.369 6.97168 151.923 6.97168C151.476 6.97168 151.1 7.72438 151.1 8.19709Z" fill="#FF8A00"/>
<path d="M149.428 9.01416C149.882 9.01416 150.251 8.64755 150.251 8.19709C150.251 7.72438 149.874 6.97168 149.428 6.97168C148.982 6.97168 148.606 7.72438 148.606 8.19709C148.606 8.64755 148.975 9.01416 149.428 9.01416Z" fill="#FF8A00"/>
<path d="M159.607 5.02894C159.308 4.81429 159.134 4.56964 159.073 4.33669C158.846 3.46704 158.088 2.8595 157.267 2.8595C156.447 2.8595 155.716 3.46704 155.49 4.33711C155.428 4.56932 155.254 4.81429 154.955 5.02936C154.59 5.29147 154.424 5.69671 154.52 6.08769C154.635 6.55785 155.161 6.97607 155.88 6.97607C156.184 6.97607 156.472 6.89871 156.714 6.75228C156.875 6.65448 157.066 6.60265 157.267 6.60265C157.467 6.60265 157.685 6.65416 157.848 6.75185C158.09 6.89903 158.378 6.97692 158.679 6.97692C159.397 6.97692 159.926 6.56072 160.042 6.08769C160.138 5.69671 159.971 5.29105 159.607 5.02894Z" fill="#FF8A00"/>
<path d="M155.212 2.85942C155.212 2.38671 154.835 1.63391 154.389 1.63391C153.943 1.63391 153.567 2.38671 153.567 2.85942C153.567 3.30979 153.936 3.6764 154.389 3.6764C154.843 3.6764 155.212 3.30979 155.212 2.85942Z" fill="#FF8A00"/>
<path d="M160.173 1.63391C159.727 1.63391 159.35 2.38671 159.35 2.85942C159.35 3.30979 159.719 3.6764 160.173 3.6764C160.626 3.6764 160.995 3.30979 160.995 2.85942C160.995 2.38671 160.619 1.63391 160.173 1.63391Z" fill="#FF8A00"/>
<path d="M157.706 1.22551C157.706 1.67587 158.075 2.04248 158.528 2.04248C158.981 2.04248 159.35 1.67587 159.35 1.22551C159.35 0.752802 158.974 0 158.528 0C158.082 0 157.706 0.752802 157.706 1.22551Z" fill="#FF8A00"/>
<path d="M155.211 1.22551C155.211 1.67587 155.58 2.04248 156.034 2.04248C156.487 2.04248 156.856 1.67587 156.856 1.22551C156.856 0.752802 156.48 0 156.034 0C155.588 0 155.211 0.752802 155.211 1.22551Z" fill="#FF8A00"/>
</g>
<defs>
<clipPath id="clip0_77_92">
<rect width="14.0386" height="13.9484" fill="white" transform="translate(146.961)"/>
</clipPath>
</defs>
</svg>
