<svg width="73" height="71" fill="none" xmlns="http://www.w3.org/2000/svg"><g filter="url(#b)" fill="#FF8A00" clip-path="url(#a)"><path d="M52.404 38.08c-4.468-5.444-10.116-8.441-15.904-8.441s-11.436 2.997-15.904 8.44c-4.016 4.892-6.414 11.058-6.414 16.493 0 2.64.8 4.651 2.378 5.977 1.557 1.31 3.613 1.752 5.907 1.752 2.441 0 5.151-.501 7.814-.994 2.327-.43 4.525-.837 6.22-.837 1.461 0 3.523.386 5.705.794 5.1.956 10.88 2.038 14.22-.763 1.587-1.331 2.392-3.326 2.392-5.93 0-5.434-2.398-11.6-6.414-16.492ZM52.86 8.525C51.227 6.093 48.886 4.7 46.439 4.7c-2.447 0-4.788 1.394-6.423 3.826-1.502 2.234-2.33 5.168-2.33 8.26 0 3.093.828 6.027 2.33 8.261 1.635 2.432 3.976 3.826 6.423 3.826s4.788-1.394 6.423-3.826c1.502-2.234 2.329-5.168 2.329-8.26 0-3.093-.827-6.027-2.33-8.26ZM32.985 8.525c-1.634-2.432-3.976-3.827-6.423-3.827s-4.788 1.395-6.423 3.827c-1.502 2.234-2.329 5.167-2.329 8.26s.827 6.027 2.33 8.26c1.634 2.433 3.975 3.827 6.422 3.827 2.447 0 4.788-1.394 6.423-3.826 1.502-2.234 2.33-5.168 2.33-8.26 0-3.094-.828-6.027-2.33-8.261ZM69.32 27.498c-.659-2.262-2.072-3.905-3.978-4.628-1.533-.58-3.265-.482-4.875.278-2.218 1.047-4.032 3.21-4.975 5.934-.77 2.226-.867 4.578-.27 6.624.659 2.262 2.071 3.905 3.977 4.628.66.25 1.356.374 2.063.374a6.59 6.59 0 0 0 2.813-.652c2.218-1.047 4.032-3.21 4.975-5.934.77-2.225.867-4.578.27-6.624ZM17.508 29.081c-.943-2.723-2.756-4.886-4.975-5.933-1.61-.76-3.342-.859-4.875-.278-1.906.723-3.319 2.366-3.978 4.628-.596 2.046-.5 4.398.27 6.624.944 2.724 2.757 4.886 4.976 5.934a6.592 6.592 0 0 0 2.812.651c.707 0 1.403-.124 2.063-.374 1.906-.722 3.319-2.365 3.978-4.627.596-2.046.5-4.399-.27-6.625Z"/></g><defs><clipPath id="a"><path fill="#fff" d="M0 0h73v71H0z"/></clipPath><filter id="b" x="-2.707" y="2.698" width="78.413" height="69.603" filterUnits="userSpaceOnUse" color-interpolation-filters="sRGB"><feFlood flood-opacity="0" result="BackgroundImageFix"/><feColorMatrix in="SourceAlpha" values="0 0 0 0 0 0 0 0 0 0 0 0 0 0 0 0 0 0 127 0" result="hardAlpha"/><feOffset dy="4"/><feGaussianBlur stdDeviation="3"/><feComposite in2="hardAlpha" operator="out"/><feColorMatrix values="0 0 0 0 0 0 0 0 0 0 0 0 0 0 0 0 0 0 0.25 0"/><feBlend in2="BackgroundImageFix" result="effect1_dropShadow_44_326"/><feBlend in="SourceGraphic" in2="effect1_dropShadow_44_326" result="shape"/></filter></defs></svg>