<svg width="189" height="15" fill="none" xmlns="http://www.w3.org/2000/svg"><g fill="#282626"><path d="M8.56 11H7.3V1.78H1.44V11H.18V.72h8.38V11ZM12.142.72V2.7c.747-1.52 1.974-2.28 3.68-2.28 1.4 0 2.52.5 3.36 1.5.854 1 1.28 2.327 1.28 3.98 0 1.627-.42 2.94-1.26 3.94-.84.987-1.953 1.48-3.34 1.48-1.733 0-2.947-.74-3.64-2.22v5.74h-1.22V.72h1.14Zm6.08 1.96c-.627-.813-1.48-1.22-2.56-1.22s-1.933.393-2.56 1.18c-.613.787-.92 1.867-.92 3.24 0 1.347.313 2.413.94 3.2.64.787 1.5 1.18 2.58 1.18 1.054 0 1.894-.393 2.52-1.18.64-.8.96-1.86.96-3.18 0-1.347-.32-2.42-.96-3.22ZM30.787 11h-1.26V2.2l-5.56 8.8h-1.56V.72h1.26v8.8l5.56-8.8h1.56V11ZM41.629.42c1.48 0 2.653.493 3.52 1.48.88.987 1.32 2.32 1.32 4 0 1.667-.434 2.987-1.3 3.96-.867.96-2.047 1.44-3.54 1.44-1.454 0-2.62-.46-3.5-1.38-.867-.933-1.334-2.187-1.4-3.76h-2.32V11h-1.26V.72h1.26V5.1h2.36c.146-1.44.653-2.58 1.52-3.42.866-.84 1.98-1.26 3.34-1.26Zm2.6 2.26c-.654-.8-1.527-1.2-2.62-1.2-1.094 0-1.967.4-2.62 1.2-.654.787-.98 1.847-.98 3.18 0 1.36.32 2.433.96 3.22.653.787 1.546 1.18 2.68 1.18 1.093 0 1.96-.393 2.6-1.18.64-.787.96-1.853.96-3.2 0-1.347-.327-2.413-.98-3.2ZM55.712 1.78h-3.82V11h-1.26V1.78h-3.82V.72h8.9v1.06ZM72.186 14.28h-1.26V11h-8.28v3.28h-1.26V9.94h1.22c.946-1.747 1.42-4.38 1.42-7.9V.72h6.72v9.22h1.44v4.34Zm-2.7-4.34V1.78h-4.24v.68c0 3.227-.447 5.72-1.34 7.48h5.58ZM81.979 11h-1.26V1.78h-4.2l-.18 5.16c-.053 1.493-.3 2.58-.74 3.26-.44.68-1.087 1.02-1.94 1.02-.373 0-.74-.073-1.1-.22V9.98c.24.12.613.18 1.12.18.867 0 1.34-1.093 1.42-3.28l.2-6.16h6.68V11ZM92.261 11h-1.26V6.68h-2.56L84.821 11h-1.64l3.82-4.36c-.933-.067-1.68-.353-2.24-.86-.547-.52-.82-1.22-.82-2.1 0-.907.28-1.627.84-2.16.573-.533 1.333-.8 2.28-.8h5.2V11Zm-1.26-9.22h-3.64c-.68 0-1.213.173-1.6.52-.373.333-.56.8-.56 1.4 0 .6.187 1.073.56 1.42.387.333.92.5 1.6.5h3.64V1.78ZM104.299 5.84l-3.8 5.16h-1.54l4.46-6-4.02-4.28h1.7l4.74 5.24V.72h1.26v5.22l4.74-5.22h1.7L109.519 5l4.46 6h-1.54l-3.8-5.16-1.54 1.6V11h-1.26V7.44l-1.54-1.6ZM123.443 11h-1.26V2.2l-5.56 8.8h-1.56V.72h1.26v8.8l5.56-8.8h1.56V11ZM134.325 8.12c0 .933-.32 1.647-.96 2.14-.64.493-1.553.74-2.74.74h-4.82V.72h4.82c1.053 0 1.867.213 2.44.64.573.413.86 1.013.86 1.8 0 1.24-.593 2.027-1.78 2.36v.04c1.453.253 2.18 1.107 2.18 2.56Zm-1.66-4.64c0-1.133-.727-1.7-2.18-1.7h-3.42v3.36h3.42c.707 0 1.247-.147 1.62-.44.373-.293.56-.7.56-1.22Zm.4 4.5c0-1.24-.86-1.86-2.58-1.86h-3.42v3.82h3.42c1.72 0 2.58-.653 2.58-1.96ZM140.576.42c1.48 0 2.653.493 3.52 1.48.88.987 1.32 2.32 1.32 4 0 1.667-.433 2.987-1.3 3.96-.867.96-2.047 1.44-3.54 1.44-1.493 0-2.687-.487-3.58-1.46-.88-.987-1.32-2.313-1.32-3.98 0-1.653.44-2.973 1.32-3.96.893-.987 2.087-1.48 3.58-1.48Zm2.6 2.26c-.653-.8-1.527-1.2-2.62-1.2-1.093 0-1.967.4-2.62 1.2-.653.787-.98 1.847-.98 3.18 0 1.36.32 2.433.96 3.22.653.787 1.547 1.18 2.68 1.18 1.093 0 1.96-.393 2.6-1.18.64-.787.96-1.853.96-3.2 0-1.347-.327-2.413-.98-3.2ZM154.658 1.78h-3.82V11h-1.26V1.78h-3.82V.72h8.9v1.06ZM164.205 11h-1.26V6.16h-5.86V11h-1.26V.72h1.26V5.1h5.86V.72h1.26V11ZM166.527.72h1.26v4.04h3.34c1 0 1.793.28 2.38.84.586.56.88 1.32.88 2.28 0 .973-.294 1.74-.88 2.3-.587.547-1.38.82-2.38.82h-4.6V.72Zm6.6 7.16c0-.653-.207-1.16-.62-1.52-.4-.36-.96-.54-1.68-.54h-3.04v4.12h3.04c.733 0 1.3-.173 1.7-.52.4-.36.6-.873.6-1.54Zm3.2-7.16h1.26V11h-1.26V.72ZM187.927.72l-3.64 4.8 4.06 5.48h-1.6l-2.74-3.76a5.934 5.934 0 0 0-.16-.2 3.662 3.662 0 0 0-.18-.28 11.89 11.89 0 0 0-.18-.3c-.147.24-.32.493-.52.76l-2.72 3.78h-1.5l3.98-5.4-3.68-4.88h1.6l2.22 3a3.7 3.7 0 0 1 .32.48c.146.213.253.373.32.48l.66-.96 2.28-3h1.48Z"/></g></svg>