<svg width="73" height="71" viewBox="0 0 73 71" fill="none" xmlns="http://www.w3.org/2000/svg">
<g clip-path="url(#clip0_44_326)">
<g filter="url(#filter0_d_44_326)">
<path d="M52.404 38.0791C47.9356 32.6364 42.2876 29.6389 36.5 29.6389C30.7124 29.6389 25.0643 32.6364 20.5962 38.0791C16.5798 42.9713 14.1821 49.1368 14.1821 54.5719C14.1821 57.2122 14.9821 59.2232 16.56 60.5495C18.1173 61.8586 20.1734 62.3014 22.4673 62.3013C24.9081 62.3013 27.6184 61.7998 30.2813 61.307C32.6082 60.8764 34.8061 60.4696 36.5001 60.4696C37.9623 60.4696 40.0238 60.8557 42.206 61.2644C47.306 62.2196 53.0865 63.3021 56.4258 60.5012C58.0132 59.1697 58.8181 57.1747 58.8181 54.5719C58.8182 49.1368 56.4204 42.9713 52.404 38.0791Z" fill="#FF8A00"/>
<path d="M52.8608 8.52506C51.2259 6.0933 48.8848 4.69873 46.4378 4.69873C43.9906 4.69873 41.6496 6.09343 40.0147 8.52506C38.5129 10.759 37.6857 13.6926 37.6857 16.7856C37.6857 19.8785 38.5128 22.8122 40.0147 25.0461C41.6496 27.4777 43.9907 28.8724 46.4378 28.8724C48.885 28.8724 51.2259 27.4777 52.8608 25.0461C54.3627 22.8122 55.1898 19.8785 55.1898 16.7856C55.1898 13.6926 54.3628 10.7588 52.8608 8.52506Z" fill="#FF8A00"/>
<path d="M32.9854 8.52481C31.3505 6.09305 29.0095 4.69849 26.5624 4.69849C24.1152 4.69849 21.7741 6.09319 20.1393 8.52481C18.6375 10.7587 17.8103 13.6923 17.8103 16.7853C17.8103 19.8783 18.6374 22.8119 20.1393 25.0458C21.7742 27.4776 24.1152 28.8723 26.5624 28.8723C29.0095 28.8723 31.3505 27.4776 32.9854 25.0458C34.4872 22.8119 35.3144 19.8784 35.3144 16.7853C35.3143 13.6923 34.4872 10.7586 32.9854 8.52481Z" fill="#FF8A00"/>
<path d="M69.3201 27.4979C68.661 25.2361 67.2483 23.5926 65.3424 22.8704C63.8087 22.2893 62.0774 22.3878 60.4674 23.148C58.2486 24.1954 56.4351 26.3582 55.4921 29.0818C54.7214 31.3075 54.6253 33.6599 55.2216 35.7062C55.8807 37.968 57.2934 39.6114 59.1994 40.3336C59.859 40.5836 60.5549 40.7078 61.2621 40.7078C62.1996 40.7078 63.1569 40.4894 64.0746 40.0561C66.2933 39.0087 68.1069 36.8458 69.0499 34.1224V34.1223C69.8204 31.8967 69.9165 29.5441 69.3201 27.4979Z" fill="#FF8A00"/>
<path d="M17.5082 29.0814C16.565 26.3578 14.7515 24.1951 12.5329 23.1477C10.9227 22.3875 9.19133 22.2891 7.65772 22.8701C5.7517 23.5925 4.33899 25.2359 3.67991 27.4976C3.08362 29.5438 3.17974 31.8964 3.95037 34.1219V34.1221C4.89365 36.8456 6.70705 39.0084 8.92567 40.0558C9.84353 40.489 10.8007 40.7074 11.7381 40.7074C12.4453 40.7074 13.1414 40.5831 13.8008 40.3333C15.7071 39.611 17.1197 37.9675 17.7788 35.7059C18.3748 33.6597 18.2787 31.3072 17.5082 29.0814Z" fill="#FF8A00"/>
</g>
</g>
<defs>
<filter id="filter0_d_44_326" x="-2.70667" y="2.69849" width="78.4135" height="69.6028" filterUnits="userSpaceOnUse" color-interpolation-filters="sRGB">
<feFlood flood-opacity="0" result="BackgroundImageFix"/>
<feColorMatrix in="SourceAlpha" type="matrix" values="0 0 0 0 0 0 0 0 0 0 0 0 0 0 0 0 0 0 127 0" result="hardAlpha"/>
<feOffset dy="4"/>
<feGaussianBlur stdDeviation="3"/>
<feComposite in2="hardAlpha" operator="out"/>
<feColorMatrix type="matrix" values="0 0 0 0 0 0 0 0 0 0 0 0 0 0 0 0 0 0 0.25 0"/>
<feBlend mode="normal" in2="BackgroundImageFix" result="effect1_dropShadow_44_326"/>
<feBlend mode="normal" in="SourceGraphic" in2="effect1_dropShadow_44_326" result="shape"/>
</filter>
<clipPath id="clip0_44_326">
<rect width="73" height="71" fill="white"/>
</clipPath>
</defs>
</svg>
